<svg width="1024" height="1024" viewBox="0 0 1024 1024" fill="none" xmlns="http://www.w3.org/2000/svg">
  <rect width="1024" height="1024" rx="224" fill="#111827"/>
  <rect x="250" y="224" width="452" height="452" rx="92" fill="#38BDF8"/>
  <rect x="314" y="288" width="452" height="452" rx="92" fill="#22C55E"/>
  <rect x="378" y="352" width="452" height="452" rx="92" fill="#FFFFFF"/>
  <path d="M378 444C378 393.19 419.19 352 470 352H738C788.81 352 830 393.19 830 444V492H378V444Z" fill="#E5E7EB"/>
  <circle cx="446" cy="422" r="20" fill="#EF4444"/>
  <circle cx="510" cy="422" r="20" fill="#F59E0B"/>
  <circle cx="574" cy="422" r="20" fill="#22C55E"/>
  <path d="M512 606C512 555.19 553.19 514 604 514C654.81 514 696 555.19 696 606C696 656.81 654.81 698 604 698C553.19 698 512 656.81 512 606Z" fill="#2563EB"/>
  <path d="M604 514C654.81 514 696 555.19 696 606H604V514Z" fill="#93C5FD"/>
  <path d="M538 736C538 699.549 567.549 670 604 670C640.451 670 670 699.549 670 736V748H538V736Z" fill="#1D4ED8"/>
  <circle cx="292" cy="280" r="30" fill="#BAE6FD"/>
  <circle cx="354" cy="342" r="30" fill="#BBF7D0"/>
</svg>
